<svg width="80" height="24" viewBox="0 0 80 24" fill="none" xmlns="http://www.w3.org/2000/svg">
<path d="M12 22C17.5228 22 22 17.5228 22 12C22 6.47715 17.5228 2 12 2C6.47715 2 2 6.47715 2 12C2 17.5228 6.47715 22 12 22Z" stroke="#FCF7E6" stroke-width="2" stroke-linecap="round" stroke-linejoin="round"/>
<path d="M12 8V12" stroke="#FCF7E6" stroke-width="2" stroke-linecap="round" stroke-linejoin="round"/>
<path d="M12 16H12.01" stroke="#FCF7E6" stroke-width="2" stroke-linecap="round" stroke-linejoin="round"/>
<path d="M30.7333 18L33.6773 6.8H37.3573L40.3013 18H38.1253L37.5173 15.536H33.5173L32.9093 18H30.7333ZM34.0133 13.584H37.0213L35.6613 8.128H35.3733L34.0133 13.584ZM41.6419 18V6.8H43.7539V16.08H48.8739V18H41.6419ZM50.3138 18V6.8H54.9218C55.6258 6.8 56.2445 6.944 56.7778 7.232C57.3218 7.50933 57.7431 7.904 58.0418 8.416C58.3511 8.928 58.5058 9.536 58.5058 10.24V10.464C58.5058 11.1573 58.3458 11.7653 58.0258 12.288C57.7165 12.8 57.2898 13.2 56.7458 13.488C56.2125 13.7653 55.6045 13.904 54.9218 13.904H52.4258V18H50.3138ZM52.4258 11.984H54.7138C55.2151 11.984 55.6205 11.8453 55.9298 11.568C56.2391 11.2907 56.3938 10.912 56.3938 10.432V10.272C56.3938 9.792 56.2391 9.41333 55.9298 9.136C55.6205 8.85867 55.2151 8.72 54.7138 8.72H52.4258V11.984ZM59.9701 18V6.8H62.0821V11.424H66.2421V6.8H68.3541V18H66.2421V13.344H62.0821V18H59.9701ZM69.7021 18L72.6461 6.8H76.3261L79.2701 18H77.0941L76.4861 15.536H72.4861L71.8781 18H69.7021ZM72.9821 13.584H75.9901L74.6301 8.128H74.3421L72.9821 13.584Z" fill="#FCF7E6"/>
</svg>
